<svg width="48" height="48" viewBox="0 0 48 48" fill="none" xmlns="http://www.w3.org/2000/svg">
<g id="Share-Icons">
<path id="Vector" d="M28.2573 21.6617C27.1833 22.7357 25.6962 23.3967 24.044 23.3967C22.3917 23.3967 20.9046 22.7358 19.8306 21.6617C18.7566 20.5877 18.0956 19.1006 18.0956 17.4483C18.0956 15.7961 18.7566 14.309 19.8306 13.235C20.9046 12.161 22.3917 11.5 24.044 11.5C25.6962 11.5 27.1833 12.1609 28.2573 13.235C29.3313 14.3091 29.9923 15.7961 29.9923 17.4483C29.9923 19.1006 29.3314 20.5877 28.2573 21.6617ZM24.044 14.7633C23.3004 14.7633 22.6189 15.0731 22.1439 15.5481C21.6482 16.0438 21.359 16.7048 21.359 17.4483C21.359 18.1918 21.6688 18.8733 22.1439 19.3484C22.6396 19.8441 23.3005 20.1332 24.044 20.1332C24.7875 20.1332 25.4691 19.8234 25.9441 19.3484C26.4398 18.8527 26.729 18.1918 26.729 17.4483C26.729 16.7048 26.4192 16.0232 25.9441 15.5481C25.4691 15.0524 24.7875 14.7633 24.044 14.7633ZM30.3021 23.438L32.0371 25.8133C32.1197 25.9372 32.0991 26.1024 31.9958 26.1851C30.5294 27.383 28.8151 28.1885 27.0388 28.6015L30.4055 35.0869C30.5087 35.2728 30.3642 35.5 30.1576 35.5H26.5638C26.4606 35.5 26.3573 35.438 26.316 35.3348L24.044 29.9854L21.7721 35.3348C21.7308 35.438 21.6275 35.5 21.5243 35.5H17.9099C17.7033 35.5 17.5588 35.2728 17.662 35.0869L21.0493 28.6015C19.273 28.1884 17.5587 27.3829 16.0923 26.1851C15.989 26.1024 15.9684 25.9372 16.051 25.8133L17.8066 23.438C17.9098 23.3141 18.0957 23.2934 18.2196 23.3967C19.872 24.8012 21.8961 25.7099 24.0648 25.7099C26.2335 25.7099 28.2575 24.8012 29.9099 23.3967C30.0132 23.2728 30.1991 23.2934 30.3023 23.438H30.3021Z" fill="white"/>
</g>
</svg>
